<svg width="24" height="24" viewBox="0 0 24 24" fill="none" xmlns="http://www.w3.org/2000/svg">
<path d="M17.2901 9.71L18.5901 11L7.00006 11C6.73484 11 6.48049 11.1054 6.29295 11.2929C6.10542 11.4804 6.00006 11.7348 6.00006 12C6.00006 12.2652 6.10542 12.5196 6.29295 12.7071C6.48049 12.8946 6.73484 13 7.00006 13L18.5901 13L17.2901 14.29C17.1963 14.383 17.1219 14.4936 17.0712 14.6154C17.0204 14.7373 16.9943 14.868 16.9943 15C16.9943 15.132 17.0204 15.2627 17.0712 15.3846C17.1219 15.5064 17.1963 15.617 17.2901 15.71C17.383 15.8037 17.4936 15.8781 17.6155 15.9289C17.7373 15.9797 17.868 16.0058 18.0001 16.0058C18.1321 16.0058 18.2628 15.9797 18.3846 15.9289C18.5065 15.8781 18.6171 15.8037 18.7101 15.71L21.7101 12.71C21.8038 12.617 21.8782 12.5064 21.929 12.3846C21.9797 12.2627 22.0059 12.132 22.0059 12C22.0059 11.868 21.9797 11.7373 21.929 11.6154C21.8782 11.4936 21.8038 11.383 21.7101 11.29L18.7101 8.29C18.5218 8.1017 18.2664 7.99591 18.0001 7.99591C17.7338 7.99591 17.4784 8.1017 17.2901 8.29C17.1018 8.4783 16.996 8.7337 16.996 9C16.996 9.2663 17.1018 9.5217 17.2901 9.71V9.71ZM15.0001 18V16C15.0001 15.7348 14.8947 15.4804 14.7072 15.2929C14.5196 15.1054 14.2653 15 14.0001 15C13.7348 15 13.4805 15.1054 13.293 15.2929C13.1054 15.4804 13.0001 15.7348 13.0001 16V18C13.0001 18.2652 12.8947 18.5196 12.7072 18.7071C12.5196 18.8946 12.2653 19 12.0001 19L5.00006 19C4.73484 19 4.48049 18.8946 4.29295 18.7071C4.10542 18.5196 4.00006 18.2652 4.00006 18L4.00006 6C4.00006 5.73478 4.10542 5.48043 4.29295 5.29289C4.48049 5.10536 4.73484 5 5.00006 5H12.0001C12.2653 5 12.5196 5.10536 12.7072 5.29289C12.8947 5.48043 13.0001 5.73478 13.0001 6V8C13.0001 8.26522 13.1054 8.51957 13.293 8.70711C13.4805 8.89464 13.7348 9 14.0001 9C14.2653 9 14.5196 8.89464 14.7072 8.70711C14.8947 8.51957 15.0001 8.26522 15.0001 8V6C15.0001 5.20435 14.684 4.44129 14.1214 3.87868C13.5588 3.31607 12.7957 3 12.0001 3L5.00006 3C4.20441 3 3.44135 3.31607 2.87874 3.87868C2.31613 4.44129 2.00006 5.20435 2.00006 6L2.00006 18C2.00006 18.7956 2.31613 19.5587 2.87874 20.1213C3.44135 20.6839 4.20441 21 5.00006 21L12.0001 21C12.7957 21 13.5588 20.6839 14.1214 20.1213C14.684 19.5587 15.0001 18.7956 15.0001 18Z" fill="#6B7280"/>
</svg>
