<svg width="24" height="24" viewBox="0 0 24 24" fill="none" xmlns="http://www.w3.org/2000/svg">
<path d="M12 2C14.5636 2.00731 17.0265 2.99891 18.88 4.77V3C18.88 2.73478 18.9854 2.48043 19.1729 2.29289C19.3604 2.10536 19.6148 2 19.88 2C20.1452 2 20.3996 2.10536 20.5871 2.29289C20.7746 2.48043 20.88 2.73478 20.88 3V7.5C20.88 7.76522 20.7746 8.01957 20.5871 8.20711C20.3996 8.39464 20.1452 8.5 19.88 8.5H15.38C15.1148 8.5 14.8604 8.39464 14.6729 8.20711C14.4854 8.01957 14.38 7.76522 14.38 7.5C14.38 7.23478 14.4854 6.98043 14.6729 6.79289C14.8604 6.60536 15.1148 6.5 15.38 6.5H17.78C16.4942 5.15636 14.7805 4.30265 12.9335 4.08567C11.0864 3.86868 9.22152 4.30198 7.65935 5.31104C6.09718 6.32011 4.93537 7.84191 4.37367 9.61479C3.81198 11.3877 3.8855 13.3009 4.58158 15.0254C5.27767 16.7499 6.55284 18.1781 8.18784 19.0643C9.82284 19.9505 11.7155 20.2394 13.5404 19.8813C15.3654 19.5232 17.0085 18.5405 18.1874 17.1022C19.3663 15.6638 20.0072 13.8597 20 12C20 11.7348 20.1054 11.4804 20.2929 11.2929C20.4804 11.1054 20.7348 11 21 11C21.2652 11 21.5196 11.1054 21.7071 11.2929C21.8946 11.4804 22 11.7348 22 12C22 13.9778 21.4135 15.9112 20.3147 17.5557C19.2159 19.2002 17.6541 20.4819 15.8268 21.2388C13.9996 21.9957 11.9889 22.1937 10.0491 21.8079C8.10929 21.422 6.32746 20.4696 4.92893 19.0711C3.53041 17.6725 2.578 15.8907 2.19215 13.9509C1.80629 12.0111 2.00433 10.0004 2.7612 8.17317C3.51808 6.3459 4.79981 4.78412 6.4443 3.6853C8.08879 2.58649 10.0222 2 12 2ZM12 8C12.2652 8 12.5196 8.10536 12.7071 8.29289C12.8946 8.48043 13 8.73478 13 9V12C13 12.2652 12.8946 12.5196 12.7071 12.7071C12.5196 12.8946 12.2652 13 12 13H10C9.73478 13 9.48043 12.8946 9.29289 12.7071C9.10536 12.5196 9 12.2652 9 12C9 11.7348 9.10536 11.4804 9.29289 11.2929C9.48043 11.1054 9.73478 11 10 11H11V9C11 8.73478 11.1054 8.48043 11.2929 8.29289C11.4804 8.10536 11.7348 8 12 8Z" fill="#6B7280"/>
</svg>
