<svg width="24" height="24" viewBox="0 0 24 24" fill="none" xmlns="http://www.w3.org/2000/svg">
<path fill-rule="evenodd" clip-rule="evenodd" d="M17.7572 9.68394C17.406 10.8809 16.6904 11.9387 15.71 12.71C15.7267 12.7166 15.7434 12.7233 15.76 12.73C15.0882 13.1168 14.5058 13.6414 14.0514 14.2652C13.3932 14.0924 12.7109 14.003 12.02 14.003C10.0529 14.003 8.15475 14.7278 6.68822 16.0388C5.22168 17.3498 4.28958 19.1552 4.07 21.11C4.04082 21.3752 3.90749 21.618 3.69932 21.7849C3.49116 21.9518 3.22521 22.0292 2.96 22C2.69478 21.9708 2.45202 21.8375 2.28511 21.6293C2.20246 21.5263 2.14093 21.4079 2.10402 21.2811C2.06711 21.1542 2.05555 21.0213 2.07 20.89C2.26956 19.0913 2.95349 17.3805 4.04889 15.9399C5.14428 14.4994 6.61007 13.383 8.29 12.71C7.3096 11.9387 6.59401 10.8809 6.24276 9.68394C5.89151 8.48697 5.92208 7.21027 6.33021 6.03147C6.73834 4.85267 7.50374 3.83039 8.51993 3.10686C9.53611 2.38332 10.7525 1.99451 12 1.99451C13.2474 1.99451 14.4639 2.38332 15.4801 3.10686C16.4963 3.83039 17.2617 4.85267 17.6698 6.03147C18.0779 7.21027 18.1085 8.48697 17.7572 9.68394ZM9.77772 11.3259C10.4355 11.7654 11.2089 12 12 12C13.0609 12 14.0783 11.5786 14.8284 10.8284C15.5786 10.0783 16 9.06087 16 8C16 7.20888 15.7654 6.43552 15.3259 5.77772C14.8863 5.11993 14.2616 4.60723 13.5307 4.30448C12.7998 4.00173 11.9956 3.92252 11.2196 4.07686C10.4437 4.2312 9.73098 4.61217 9.17157 5.17158C8.61216 5.73099 8.2312 6.44372 8.07685 7.21964C7.92251 7.99557 8.00173 8.79983 8.30448 9.53074C8.60723 10.2616 9.11992 10.8864 9.77772 11.3259Z" fill="#6B7280"/>
<path d="M23.626 17.1525L22.5865 16.806L23.076 15.827C23.1256 15.7245 23.1422 15.6092 23.1235 15.4969C23.1048 15.3846 23.0517 15.2808 22.9715 15.2L21.8 14.0285C21.7187 13.9471 21.614 13.8933 21.5005 13.8746C21.3871 13.8558 21.2706 13.8731 21.1675 13.924L20.1885 14.4135L19.842 13.374C19.8054 13.2656 19.7359 13.1714 19.6433 13.1044C19.5506 13.0373 19.4394 13.0009 19.325 13H17.675C17.5597 12.9997 17.4472 13.0357 17.3535 13.1028C17.2597 13.1699 17.1894 13.2648 17.1525 13.374L16.806 14.4135L15.827 13.924C15.7245 13.8744 15.6092 13.8578 15.4969 13.8765C15.3846 13.8952 15.2808 13.9483 15.2 14.0285L14.0285 15.2C13.9471 15.2813 13.8933 15.386 13.8746 15.4995C13.8558 15.6129 13.8731 15.7294 13.924 15.8325L14.4135 16.8115L13.374 17.158C13.2656 17.1946 13.1714 17.2641 13.1044 17.3567C13.0373 17.4494 13.0009 17.5606 13 17.675V19.325C12.9997 19.4403 13.0357 19.5528 13.1028 19.6465C13.1699 19.7403 13.2648 19.8106 13.374 19.8475L14.4135 20.194L13.924 21.173C13.8744 21.2755 13.8578 21.3908 13.8765 21.5031C13.8952 21.6154 13.9483 21.7192 14.0285 21.8L15.2 22.9715C15.2813 23.0529 15.386 23.1067 15.4995 23.1254C15.6129 23.1442 15.7294 23.1269 15.8325 23.076L16.8115 22.5865L17.158 23.626C17.1949 23.7352 17.2652 23.8301 17.359 23.8972C17.4527 23.9643 17.5652 24.0003 17.6805 24H19.3305C19.4458 24.0003 19.5583 23.9643 19.652 23.8972C19.7458 23.8301 19.8161 23.7352 19.853 23.626L20.1995 22.5865L21.1785 23.076C21.2803 23.1244 21.3945 23.1403 21.5057 23.1216C21.6169 23.1029 21.7196 23.0505 21.8 22.9715L22.9715 21.8C23.0529 21.7187 23.1067 21.614 23.1254 21.5005C23.1442 21.3871 23.1269 21.2706 23.076 21.1675L22.5865 20.1885L23.626 19.842C23.7344 19.8054 23.8286 19.7359 23.8956 19.6433C23.9627 19.5506 23.9991 19.4394 24 19.325V17.675C24.0003 17.5597 23.9643 17.4472 23.8972 17.3535C23.8301 17.2597 23.7352 17.1894 23.626 17.1525ZM22.9 18.929L22.24 19.149C22.0882 19.1982 21.949 19.2799 21.8319 19.3883C21.7149 19.4967 21.6228 19.6293 21.5621 19.7769C21.5014 19.9244 21.4735 20.0834 21.4804 20.2428C21.4873 20.4022 21.5288 20.5582 21.602 20.7L21.9155 21.327L21.3105 21.932L20.7 21.602C20.559 21.5317 20.4045 21.4926 20.247 21.4872C20.0895 21.4818 19.9327 21.5104 19.7872 21.5709C19.6417 21.6314 19.5109 21.7224 19.4036 21.8379C19.2963 21.9533 19.2151 22.0904 19.1655 22.24L18.9455 22.9H18.071L17.851 22.24C17.8018 22.0882 17.7201 21.949 17.6117 21.8319C17.5033 21.7149 17.3707 21.6228 17.2231 21.5621C17.0756 21.5014 16.9166 21.4735 16.7572 21.4804C16.5978 21.4873 16.4418 21.5288 16.3 21.602L15.673 21.9155L15.068 21.3105L15.398 20.7C15.4712 20.5582 15.5127 20.4022 15.5196 20.2428C15.5265 20.0834 15.4986 19.9244 15.4379 19.7769C15.3772 19.6293 15.2851 19.4967 15.1681 19.3883C15.051 19.2799 14.9118 19.1982 14.76 19.149L14.1 18.929V18.071L14.76 17.851C14.9118 17.8018 15.051 17.7201 15.1681 17.6117C15.2851 17.5033 15.3772 17.3707 15.4379 17.2231C15.4986 17.0756 15.5265 16.9166 15.5196 16.7572C15.5127 16.5978 15.4712 16.4418 15.398 16.3L15.0845 15.6895L15.6895 15.0845L16.3 15.398C16.4418 15.4712 16.5978 15.5127 16.7572 15.5196C16.9166 15.5265 17.0756 15.4986 17.2231 15.4379C17.3707 15.3772 17.5033 15.2851 17.6117 15.1681C17.7201 15.051 17.8018 14.9118 17.851 14.76L18.071 14.1H18.929L19.149 14.76C19.1982 14.9118 19.2799 15.051 19.3883 15.1681C19.4967 15.2851 19.6293 15.3772 19.7769 15.4379C19.9244 15.4986 20.0834 15.5265 20.2428 15.5196C20.4022 15.5127 20.5582 15.4712 20.7 15.398L21.327 15.0845L21.932 15.6895L21.602 16.3C21.5317 16.441 21.4926 16.5955 21.4872 16.753C21.4818 16.9105 21.5104 17.0673 21.5709 17.2128C21.6314 17.3583 21.7224 17.4891 21.8379 17.5964C21.9533 17.7037 22.0904 17.7849 22.24 17.8345L22.9 18.0545V18.929ZM18.5 16.3C18.0649 16.3 17.6395 16.429 17.2777 16.6708C16.916 16.9125 16.634 17.2561 16.4675 17.6581C16.301 18.0601 16.2574 18.5024 16.3423 18.9292C16.4272 19.356 16.6367 19.748 16.9444 20.0556C17.252 20.3633 17.644 20.5728 18.0708 20.6577C18.4976 20.7426 18.9399 20.699 19.3419 20.5325C19.7439 20.366 20.0875 20.084 20.3292 19.7223C20.571 19.3605 20.7 18.9351 20.7 18.5C20.7 17.9165 20.4682 17.3569 20.0556 16.9444C19.6431 16.5318 19.0835 16.3 18.5 16.3ZM18.5 19.6C18.2824 19.6 18.0698 19.5355 17.8889 19.4146C17.708 19.2937 17.567 19.122 17.4837 18.921C17.4005 18.72 17.3787 18.4988 17.4211 18.2854C17.4636 18.072 17.5683 17.876 17.7222 17.7222C17.876 17.5683 18.072 17.4636 18.2854 17.4211C18.4988 17.3787 18.72 17.4005 18.921 17.4837C19.122 17.567 19.2937 17.708 19.4146 17.8889C19.5355 18.0698 19.6 18.2824 19.6 18.5C19.6 18.7917 19.4841 19.0715 19.2778 19.2778C19.0715 19.4841 18.7917 19.6 18.5 19.6Z" fill="#6B7280"/>
</svg>

