<svg width="24" height="24" viewBox="0 0 24 24" fill="none" xmlns="http://www.w3.org/2000/svg">
<path d="M21.78 11.88L19.78 9.38C19.6868 9.26215 19.5684 9.16679 19.4333 9.101C19.2983 9.03521 19.1502 9.00069 19 9H13V3C13 2.73478 12.8946 2.48043 12.7071 2.29289C12.5195 2.10536 12.2652 2 12 2C11.7348 2 11.4804 2.10536 11.2929 2.29289C11.1053 2.48043 11 2.73478 11 3V4H4.99998C4.84977 4.00069 4.70165 4.03521 4.56662 4.101C4.43158 4.16679 4.3131 4.26215 4.21998 4.38L2.21998 6.88C2.08047 7.05655 2.00458 7.27499 2.00458 7.5C2.00458 7.72501 2.08047 7.94345 2.21998 8.12L4.21998 10.62C4.3131 10.7379 4.43158 10.8332 4.56662 10.899C4.70165 10.9648 4.84977 10.9993 4.99998 11H11V20H8.99998C8.73476 20 8.48041 20.1054 8.29287 20.2929C8.10533 20.4804 7.99998 20.7348 7.99998 21C7.99998 21.2652 8.10533 21.5196 8.29287 21.7071C8.48041 21.8946 8.73476 22 8.99998 22H15C15.2652 22 15.5195 21.8946 15.7071 21.7071C15.8946 21.5196 16 21.2652 16 21C16 20.7348 15.8946 20.4804 15.7071 20.2929C15.5195 20.1054 15.2652 20 15 20H13V16H19C19.1502 15.9993 19.2983 15.9648 19.4333 15.899C19.5684 15.8332 19.6868 15.7379 19.78 15.62L21.78 13.12C21.9195 12.9435 21.9954 12.725 21.9954 12.5C21.9954 12.275 21.9195 12.0565 21.78 11.88ZM11 9H5.47998L4.27998 7.5L5.47998 6H11V9ZM18.52 14H13V11H18.52L19.72 12.5L18.52 14Z" fill="#6B7280"/>
</svg>
