<svg width="24" height="24" viewBox="0 0 24 24" fill="none" xmlns="http://www.w3.org/2000/svg">
<path d="M14.25 12.22C14.7836 11.7581 15.2116 11.1869 15.5049 10.545C15.7982 9.90316 15.95 9.20571 15.95 8.5C15.95 7.17392 15.4232 5.90215 14.4855 4.96447C13.5479 4.02678 12.2761 3.5 10.95 3.5C9.62392 3.5 8.35215 4.02678 7.41447 4.96447C6.47678 5.90215 5.95 7.17392 5.95 8.5C5.95617 9.20958 6.11577 9.90944 6.41783 10.5515C6.7199 11.1937 7.15729 11.7628 7.7 12.22C6.30014 12.8539 5.11247 13.8775 4.27898 15.1685C3.44549 16.4596 3.00147 17.9633 3 19.5C3 19.7652 3.10536 20.0196 3.29289 20.2071C3.48043 20.3946 3.73478 20.5 4 20.5C4.26522 20.5 4.51957 20.3946 4.70711 20.2071C4.89464 20.0196 5 19.7652 5 19.5C5 17.9087 5.63214 16.3826 6.75736 15.2574C7.88258 14.1321 9.4087 13.5 11 13.5C12.5913 13.5 14.1174 14.1321 15.2426 15.2574C16.3679 16.3826 17 17.9087 17 19.5C17 19.7652 17.1054 20.0196 17.2929 20.2071C17.4804 20.3946 17.7348 20.5 18 20.5C18.2652 20.5 18.5196 20.3946 18.7071 20.2071C18.8946 20.0196 19 19.7652 19 19.5C18.9942 17.9578 18.5428 16.4502 17.7 15.1586C16.8573 13.867 15.6592 12.8465 14.25 12.22V12.22ZM10.95 11.5C10.3567 11.5 9.77664 11.3241 9.28329 10.9944C8.78994 10.6648 8.40542 10.1962 8.17836 9.64805C7.9513 9.09987 7.89189 8.49667 8.00764 7.91473C8.1234 7.33279 8.40912 6.79824 8.82868 6.37868C9.24824 5.95912 9.78279 5.6734 10.3647 5.55764C10.9467 5.44189 11.5499 5.5013 12.0981 5.72836C12.6462 5.95542 13.1148 6.33994 13.4444 6.83329C13.7741 7.32664 13.95 7.90666 13.95 8.5C13.95 9.29565 13.6339 10.0587 13.0713 10.6213C12.5087 11.1839 11.7456 11.5 10.95 11.5ZM19.45 6.5C19.1848 6.5 18.9304 6.60536 18.7429 6.79289C18.5554 6.98043 18.45 7.23478 18.45 7.5V9.5C18.45 9.76522 18.5554 10.0196 18.7429 10.2071C18.9304 10.3946 19.1848 10.5 19.45 10.5C19.7152 10.5 19.9696 10.3946 20.1571 10.2071C20.3446 10.0196 20.45 9.76522 20.45 9.5V7.5C20.45 7.23478 20.3446 6.98043 20.1571 6.79289C19.9696 6.60536 19.7152 6.5 19.45 6.5ZM18.7 11.79C18.5173 11.9816 18.4137 12.2352 18.41 12.5C18.4092 12.6316 18.4345 12.7621 18.4842 12.8839C18.534 13.0057 18.6073 13.1166 18.7 13.21C18.7972 13.2983 18.9088 13.3694 19.03 13.42C19.1497 13.4729 19.2791 13.5002 19.41 13.5002C19.5409 13.5002 19.6703 13.4729 19.79 13.42C19.9141 13.3751 20.0268 13.3034 20.1201 13.2101C20.2134 13.1168 20.2851 13.0041 20.33 12.88C20.386 12.7613 20.4134 12.6312 20.41 12.5C20.4112 12.3014 20.3531 12.1069 20.2433 11.9414C20.1335 11.7759 19.9769 11.6468 19.7935 11.5706C19.61 11.4945 19.4081 11.4747 19.2133 11.5137C19.0186 11.5528 18.8399 11.649 18.7 11.79Z" fill="white"/>
</svg>
